<svg width="1200" height="722" viewBox="0 0 1200 722" fill="none" xmlns="http://www.w3.org/2000/svg">
<g id="map" clip-path="url(#clip0_43_274)">
<rect width="1200" height="722" fill="#CCDBEB"/>
<path id="Polygon 3" d="M918.253 133.481C918.253 121.934 930.753 114.717 940.753 120.49L1083.25 202.763C1093.25 208.536 1093.25 222.97 1083.25 228.744L940.753 311.016C930.753 316.789 918.253 309.573 918.253 298.026L918.253 133.481Z" fill="#FAFCFF"/>
<g id="&#236;&#154;&#180;&#235;&#143;&#153;&#236;&#158;&#165;">
<rect id="Rectangle 431" x="175" y="110" width="700" height="420" rx="15" fill="#EBF8DC"/>
</g>
<g id="booth-20">
<path id="Rectangle 431_2" d="M175 134C175 125.599 175 121.399 176.635 118.19C178.073 115.368 180.368 113.073 183.19 111.635C186.399 110 190.599 110 199 110H245V530H199C190.599 530 186.399 530 183.19 528.365C180.368 526.927 178.073 524.632 176.635 521.81C175 518.601 175 514.401 175 506V134Z" fill="white"/>
<text id="20" fill="black" xml:space="preserve" style="white-space: pre" font-family="Pretendard" font-size="20" letter-spacing="-0.04em"><tspan x="198.281" y="327.109">20</tspan></text>
</g>
<g id="booth-1">
<g id="Group 51">
<path id="Rectangle 431_3" d="M245 494C245 485.599 245 481.399 246.635 478.19C248.073 475.368 250.368 473.073 253.19 471.635C256.399 470 260.599 470 269 470H291C299.401 470 303.601 470 306.81 471.635C309.632 473.073 311.927 475.368 313.365 478.19C315 481.399 315 485.599 315 494V530H245V494Z" fill="#9FD1FF"/>
<text id="1" fill="black" xml:space="preserve" style="white-space: pre" font-family="Pretendard" font-size="20" letter-spacing="-0.04em"><tspan x="276.018" y="507.109">1</tspan></text>
</g>
</g>
<g id="booth-2">
<g id="Group 51_2">
<path id="Rectangle 431_4" d="M315 494C315 485.599 315 481.399 316.635 478.19C318.073 475.368 320.368 473.073 323.19 471.635C326.399 470 330.599 470 339 470H361C369.401 470 373.601 470 376.81 471.635C379.632 473.073 381.927 475.368 383.365 478.19C385 481.399 385 485.599 385 494V530H315V494Z" fill="#9FD1FF"/>
<text id="2" fill="black" xml:space="preserve" style="white-space: pre" font-family="Pretendard" font-size="20" letter-spacing="-0.04em"><tspan x="344.053" y="507.109">2</tspan></text>
</g>
</g>
<g id="booth-3">
<g id="Group 51_3">
<path id="Rectangle 431_5" d="M385 494C385 485.599 385 481.399 386.635 478.19C388.073 475.368 390.368 473.073 393.19 471.635C396.399 470 400.599 470 409 470H431C439.401 470 443.601 470 446.81 471.635C449.632 473.073 451.927 475.368 453.365 478.19C455 481.399 455 485.599 455 494V530H385V494Z" fill="#9FD1FF"/>
<text id="3" fill="black" xml:space="preserve" style="white-space: pre" font-family="Pretendard" font-size="20" letter-spacing="-0.04em"><tspan x="414.26" y="507.109">3</tspan></text>
</g>
</g>
<g id="booth-4">
<g id="Group 51_4">
<path id="Rectangle 431_6" d="M595 494C595 485.599 595 481.399 596.635 478.19C598.073 475.368 600.368 473.073 603.19 471.635C606.399 470 610.599 470 619 470H641C649.401 470 653.601 470 656.81 471.635C659.632 473.073 661.927 475.368 663.365 478.19C665 481.399 665 485.599 665 494V530H595V494Z" fill="#9FD1FF"/>
<text id="4" fill="black" xml:space="preserve" style="white-space: pre" font-family="Pretendard" font-size="20" letter-spacing="-0.04em"><tspan x="624.152" y="507.109">4</tspan></text>
</g>
</g>
<g id="booth-21">
<g id="Group 51_5">
<path id="Rectangle 431_7" d="M455 494C455 485.599 455 481.399 456.635 478.19C458.073 475.368 460.368 473.073 463.19 471.635C466.399 470 470.599 470 479 470H501C509.401 470 513.601 470 516.81 471.635C519.632 473.073 521.927 475.368 523.365 478.19C525 481.399 525 485.599 525 494V530H455V494Z" fill="white"/>
<text id="21" fill="black" xml:space="preserve" style="white-space: pre" font-family="Pretendard" font-size="20" letter-spacing="-0.04em"><tspan x="480.47" y="507.109">21</tspan></text>
</g>
</g>
<g id="booth-22">
<g id="Group 51_6">
<path id="Rectangle 431_8" d="M525 494C525 485.599 525 481.399 526.635 478.19C528.073 475.368 530.368 473.073 533.19 471.635C536.399 470 540.599 470 549 470H571C579.401 470 583.601 470 586.81 471.635C589.632 473.073 591.927 475.368 593.365 478.19C595 481.399 595 485.599 595 494V530H525V494Z" fill="white"/>
<text id="22" fill="black" xml:space="preserve" style="white-space: pre" font-family="Pretendard" font-size="20" letter-spacing="-0.04em"><tspan x="549.005" y="507.109">22</tspan></text>
</g>
</g>
<g id="booth-5">
<g id="Group 51_7">
<path id="Rectangle 431_9" d="M665 494C665 485.599 665 481.399 666.635 478.19C668.073 475.368 670.368 473.073 673.19 471.635C676.399 470 680.599 470 689 470H711C719.401 470 723.601 470 726.81 471.635C729.632 473.073 731.927 475.368 733.365 478.19C735 481.399 735 485.599 735 494V530H665V494Z" fill="#9FD1FF"/>
<text id="5" fill="black" xml:space="preserve" style="white-space: pre" font-family="Pretendard" font-size="20" letter-spacing="-0.04em"><tspan x="694.436" y="507.109">5</tspan></text>
</g>
</g>
<g id="booth-6">
<g id="Group 51_8">
<path id="Rectangle 431_10" d="M735 494C735 485.599 735 481.399 736.635 478.19C738.073 475.368 740.368 473.073 743.19 471.635C746.399 470 750.599 470 759 470H781C789.401 470 793.601 470 796.81 471.635C799.632 473.073 801.927 475.368 803.365 478.19C805 481.399 805 485.599 805 494V530H735V494Z" fill="#9FD1FF"/>
<text id="6" fill="black" xml:space="preserve" style="white-space: pre" font-family="Pretendard" font-size="20" letter-spacing="-0.04em"><tspan x="764.27" y="507.109">6</tspan></text>
</g>
</g>
<g id="booth-11">
<path id="Rectangle 431_11" d="M805 194C805 185.599 805 181.399 806.635 178.19C808.073 175.368 810.368 173.073 813.19 171.635C816.399 170 820.599 170 829 170H875V230H829C820.599 230 816.399 230 813.19 228.365C810.368 226.927 808.073 224.632 806.635 221.81C805 218.601 805 214.401 805 206V194Z" fill="#9FD1FF"/>
<text id="11" fill="black" xml:space="preserve" style="white-space: pre" font-family="Pretendard" font-size="20" letter-spacing="-0.04em"><tspan x="831.435" y="207.109">11</tspan></text>
</g>
<g id="booth-10">
<path id="Rectangle 431_12" d="M805 254C805 245.599 805 241.399 806.635 238.19C808.073 235.368 810.368 233.073 813.19 231.635C816.399 230 820.599 230 829 230H875V290H829C820.599 290 816.399 290 813.19 288.365C810.368 286.927 808.073 284.632 806.635 281.81C805 278.601 805 274.401 805 266V254Z" fill="#9FD1FF"/>
<text id="10" fill="black" xml:space="preserve" style="white-space: pre" font-family="Pretendard" font-size="20" letter-spacing="-0.04em"><tspan x="830.246" y="267.109">10</tspan></text>
</g>
<g id="booth-9">
<path id="Rectangle 431_13" d="M805 314C805 305.599 805 301.399 806.635 298.19C808.073 295.368 810.368 293.073 813.19 291.635C816.399 290 820.599 290 829 290H875V350H829C820.599 350 816.399 350 813.19 348.365C810.368 346.927 808.073 344.632 806.635 341.81C805 338.601 805 334.401 805 326V314Z" fill="#9FD1FF"/>
<text id="9" fill="black" xml:space="preserve" style="white-space: pre" font-family="Pretendard" font-size="20" letter-spacing="-0.04em"><tspan x="834.27" y="327.109">9</tspan></text>
</g>
<g id="booth-8">
<path id="Rectangle 431_14" d="M805 374C805 365.599 805 361.399 806.635 358.19C808.073 355.368 810.368 353.073 813.19 351.635C816.399 350 820.599 350 829 350H875V410H829C820.599 410 816.399 410 813.19 408.365C810.368 406.927 808.073 404.632 806.635 401.81C805 398.601 805 394.401 805 386V374Z" fill="#9FD1FF"/>
<text id="8" fill="black" xml:space="preserve" style="white-space: pre" font-family="Pretendard" font-size="20" letter-spacing="-0.04em"><tspan x="834.318" y="387.109">8</tspan></text>
</g>
<g id="booth-7">
<path id="Rectangle 431_15" d="M805 434C805 425.599 805 421.399 806.635 418.19C808.073 415.368 810.368 413.073 813.19 411.635C816.399 410 820.599 410 829 410H875V470H829C820.599 470 816.399 470 813.19 468.365C810.368 466.927 808.073 464.632 806.635 461.81C805 458.601 805 454.401 805 446V434Z" fill="#9FD1FF"/>
<text id="7" fill="black" xml:space="preserve" style="white-space: pre" font-family="Pretendard" font-size="20" letter-spacing="-0.04em"><tspan x="834.404" y="447.109">7</tspan></text>
</g>
<g id="&#235;&#134;&#141;&#234;&#181;&#172;&#236;&#158;&#165;">
<path id="Rectangle 435" d="M53.824 616C53.8613 607.599 53.88 603.399 55.5291 600.19C56.9797 597.368 59.2846 595.073 62.1134 593.635C65.3294 592 69.5298 592 77.9305 592H99.9305C108.331 592 112.532 592 115.733 593.635C118.549 595.073 120.834 597.368 122.259 600.19C123.88 603.399 123.861 607.599 123.824 616L123.354 722H53.3536L53.824 616Z" fill="#FAFCFF"/>
</g>
<g id="&#235;&#134;&#141;&#234;&#181;&#172;&#236;&#158;&#165;_2">
<rect id="Rectangle 435_2" width="187.647" height="64.0007" rx="15" transform="matrix(1 0 -0.00443774 0.99999 -63.7159 592)" fill="#FAFCFF"/>
</g>
<text id="&#236;&#154;&#180;&#235;&#143;&#153;&#236;&#158;&#165;_2" fill="#406516" xml:space="preserve" style="white-space: pre" font-family="Pretendard" font-size="20" letter-spacing="-0.04em"><tspan x="500.372" y="321.109">&#xc6b4;&#xb3d9;&#xc7a5;</tspan></text>
<text id="2025 &#236;&#154;&#180;&#236;&#160;&#149;&#234;&#179;&#160;&#235;&#147;&#177;&#237;&#149;&#153;&#234;&#181;&#144; &#236;&#176;&#189;&#236;&#157;&#152;&#236;&#156;&#181;&#237;&#149;&#169;&#236;&#178;&#180;&#237;&#151;&#152;&#236;&#160;&#132; &#194;&#169; 20727 &#236;&#161;&#176;&#236;&#132;&#177;&#236;&#154;&#180;" fill="#FAFCFF" xml:space="preserve" style="white-space: pre" font-family="Pretendard" font-size="10" letter-spacing="-0.04em"><tspan x="1045.83" y="36.5547">2025 &#xc6b4;&#xc815;&#xace0;&#xb4f1;&#xd559;&#xad50; &#xcc3d;&#xc758;&#xc735;&#xd569;&#xccb4;&#xd5d8;&#xc804;&#10;</tspan><tspan x="1115.86" y="54.5547">&#xa9; 20727 &#xc870;&#xc131;&#xc6b4;</tspan></text>
<text id="&#234;&#181;&#144;&#235;&#172;&#184;" fill="#436D9A" xml:space="preserve" style="white-space: pre" font-family="Pretendard" font-size="20" letter-spacing="-0.04em"><tspan x="28.0552" y="631.109">&#xad50;&#xbb38;</tspan></text>
<g id="booth-19">
<g id="&#236;&#154;&#180;&#235;&#143;&#153;&#236;&#158;&#165;_3">
<path id="Rectangle 431_16" d="M245 110H315V146C315 154.401 315 158.601 313.365 161.81C311.927 164.632 309.632 166.927 306.81 168.365C303.601 170 299.401 170 291 170H269C260.599 170 256.399 170 253.19 168.365C250.368 166.927 248.073 164.632 246.635 161.81C245 158.601 245 154.401 245 146V110Z" fill="#FFEC7E"/>
</g>
<text id="19" fill="black" xml:space="preserve" style="white-space: pre" font-family="Pretendard" font-size="20" letter-spacing="-0.04em"><tspan x="270.187" y="147.109">19</tspan></text>
</g>
<g id="booth-18">
<g id="&#236;&#154;&#180;&#235;&#143;&#153;&#236;&#158;&#165;_4">
<path id="Rectangle 431_17" d="M315 110H385V146C385 154.401 385 158.601 383.365 161.81C381.927 164.632 379.632 166.927 376.81 168.365C373.601 170 369.401 170 361 170H339C330.599 170 326.399 170 323.19 168.365C320.368 166.927 318.073 164.632 316.635 161.81C315 158.601 315 154.401 315 146V110Z" fill="#FFEC7E"/>
</g>
<text id="18" fill="black" xml:space="preserve" style="white-space: pre" font-family="Pretendard" font-size="20" letter-spacing="-0.04em"><tspan x="340.236" y="147.109">18</tspan></text>
</g>
<g id="booth-17">
<g id="&#236;&#154;&#180;&#235;&#143;&#153;&#236;&#158;&#165;_5">
<path id="Rectangle 431_18" d="M385 110H455V146C455 154.401 455 158.601 453.365 161.81C451.927 164.632 449.632 166.927 446.81 168.365C443.601 170 439.401 170 431 170H409C400.599 170 396.399 170 393.19 168.365C390.368 166.927 388.073 164.632 386.635 161.81C385 158.601 385 154.401 385 146V110Z" fill="#FFEC7E"/>
</g>
<text id="17" fill="black" xml:space="preserve" style="white-space: pre" font-family="Pretendard" font-size="20" letter-spacing="-0.04em"><tspan x="410.322" y="147.109">17</tspan></text>
</g>
<g id="booth-16">
<g id="&#236;&#154;&#180;&#235;&#143;&#153;&#236;&#158;&#165;_6">
<path id="Rectangle 431_19" d="M455 110H525V146C525 154.401 525 158.601 523.365 161.81C521.927 164.632 519.632 166.927 516.81 168.365C513.601 170 509.401 170 501 170H479C470.599 170 466.399 170 463.19 168.365C460.368 166.927 458.073 164.632 456.635 161.81C455 158.601 455 154.401 455 146V110Z" fill="#FEBFFF"/>
</g>
<text id="16" fill="black" xml:space="preserve" style="white-space: pre" font-family="Pretendard" font-size="20" letter-spacing="-0.04em"><tspan x="480.187" y="147.109">16</tspan></text>
</g>
<g id="booth-15">
<g id="&#236;&#154;&#180;&#235;&#143;&#153;&#236;&#158;&#165;_7">
<path id="Rectangle 431_20" d="M525 110H595V146C595 154.401 595 158.601 593.365 161.81C591.927 164.632 589.632 166.927 586.81 168.365C583.601 170 579.401 170 571 170H549C540.599 170 536.399 170 533.19 168.365C530.368 166.927 528.073 164.632 526.635 161.81C525 158.601 525 154.401 525 146V110Z" fill="#FEBFFF"/>
</g>
<text id="15" fill="black" xml:space="preserve" style="white-space: pre" font-family="Pretendard" font-size="20" letter-spacing="-0.04em"><tspan x="550.353" y="147.109">15</tspan></text>
</g>
<g id="booth-14">
<path id="Rectangle 431_21" d="M595 110H665V146C665 154.401 665 158.601 663.365 161.81C661.927 164.632 659.632 166.927 656.81 168.365C653.601 170 649.401 170 641 170H619C610.599 170 606.399 170 603.19 168.365C600.368 166.927 598.073 164.632 596.635 161.81C595 158.601 595 154.401 595 146V110Z" fill="#9FD1FF"/>
<text id="14" fill="black" xml:space="preserve" style="white-space: pre" font-family="Pretendard" font-size="20" letter-spacing="-0.04em"><tspan x="620.07" y="147.109">14</tspan></text>
</g>
<g id="booth-13">
<g id="&#236;&#154;&#180;&#235;&#143;&#153;&#236;&#158;&#165;_8">
<path id="Rectangle 431_22" d="M665 110H735V146C735 154.401 735 158.601 733.365 161.81C731.927 164.632 729.632 166.927 726.81 168.365C723.601 170 719.401 170 711 170H689C680.599 170 676.399 170 673.19 168.365C670.368 166.927 668.073 164.632 666.635 161.81C665 158.601 665 154.401 665 146V110Z" fill="#9FD1FF"/>
</g>
<text id="13" fill="black" xml:space="preserve" style="white-space: pre" font-family="Pretendard" font-size="20" letter-spacing="-0.04em"><tspan x="690.177" y="147.109">13</tspan></text>
</g>
<g id="booth-12">
<g id="&#236;&#154;&#180;&#235;&#143;&#153;&#236;&#158;&#165;_9">
<path id="Rectangle 431_23" d="M735 110H805V146C805 154.401 805 158.601 803.365 161.81C801.927 164.632 799.632 166.927 796.81 168.365C793.601 170 789.401 170 781 170H759C750.599 170 746.399 170 743.19 168.365C740.368 166.927 738.073 164.632 736.635 161.81C735 158.601 735 154.401 735 146V110Z" fill="#9FD1FF"/>
</g>
<text id="12" fill="black" xml:space="preserve" style="white-space: pre" font-family="Pretendard" font-size="20" letter-spacing="-0.04em"><tspan x="760.47" y="147.109">12</tspan></text>
</g>
<g id="Group 52">
<g id="&#235;&#134;&#141;&#234;&#181;&#172;&#236;&#158;&#165;_3">
<path id="Rectangle 435_3" d="M174.47 616C174.508 607.599 174.526 603.399 176.175 600.19C177.626 597.368 179.931 595.073 182.76 593.635C185.976 592 190.176 592 198.577 592H879.542C887.942 592 892.143 592 895.344 593.635C898.16 595.073 900.445 597.368 901.87 600.19C903.491 603.399 903.472 607.599 903.435 616L903.071 697.999C903.034 706.4 903.015 710.6 901.366 713.809C899.916 716.631 897.611 718.926 894.782 720.364C891.566 721.999 887.366 721.999 878.965 721.999H174L174.47 616Z" fill="#FAFCFF"/>
</g>
<g id="&#235;&#134;&#141;&#234;&#181;&#172;&#236;&#158;&#165;_4">
<rect id="Rectangle 435_4" width="728.965" height="174.833" rx="15" transform="matrix(0.866025 -0.5 0.496152 0.868236 676 717.482)" fill="#FAFCFF"/>
</g>
<circle id="Ellipse 73" cx="955" cy="722" r="130" fill="#FAFCFF"/>
</g>
<text id="&#235;&#179;&#184;&#234;&#181;&#144; &#234;&#177;&#180;&#235;&#172;&#188;" fill="#436D9A" xml:space="preserve" style="white-space: pre" font-family="Pretendard" font-size="20" letter-spacing="-0.04em"><tspan x="490.088" y="664.109">&#xbcf8;&#xad50; &#xac74;&#xbb3c;</tspan></text>
<g id="Group 54">
<g id="&#235;&#134;&#141;&#234;&#181;&#172;&#236;&#158;&#165;_5">
<rect id="Rectangle 435_5" width="227.975" height="130" rx="15" transform="matrix(0.866025 -0.5 0.496152 0.868235 913 376.987)" fill="#FAFCFF"/>
</g>
<text id="&#235;&#134;&#141;&#234;&#181;&#172;&#236;&#158;&#165;_6" fill="#436D9A" xml:space="preserve" style="white-space: pre" font-family="Pretendard" font-size="20" letter-spacing="-0.04em"><tspan x="1019.37" y="387.097">&#xb18d;&#xad6c;&#xc7a5;</tspan></text>
</g>
<g id="Group 53">
<line id="Line 6" x1="76.3523" y1="64.1077" x2="30.453" y2="37.6077" stroke="#FAFCFF" stroke-width="4" stroke-linecap="round"/>
<line id="Line 7" x1="2" y1="-2" x2="40.8793" y2="-2" transform="matrix(-0.505937 -0.86257 0.869467 -0.493991 51.5421 71.6423)" stroke="#FAFCFF" stroke-width="4" stroke-linecap="round"/>
<line id="Line 8" x1="2" y1="-2" x2="34.0003" y2="-2" transform="matrix(0.503549 -0.863967 0.864031 0.503438 50.4142 73.8913)" stroke="#FAFCFF" stroke-width="4" stroke-linecap="round"/>
</g>
<g id="&#235;&#134;&#141;&#234;&#181;&#172;&#236;&#158;&#165;_7">
<rect id="Rectangle 435_6" width="10" height="420" rx="5" transform="matrix(1 0 -0.00443774 0.99999 112.864 110)" fill="#FAFCFF"/>
</g>
</g>
<defs>
<clipPath id="clip0_43_274">
<rect width="1200" height="722" fill="white"/>
</clipPath>
</defs>
</svg>
