<svg width="1130" height="722" viewBox="0 0 1130 722" fill="none" xmlns="http://www.w3.org/2000/svg">
<g id="map" clip-path="url(#clip0_32_23)">
<rect width="1130" height="722" fill="#CED9E5"/>
<g id="&#236;&#154;&#180;&#235;&#143;&#153;&#236;&#158;&#165;">
<rect id="Rectangle 431" x="125.566" y="149.061" width="582.601" height="318.607" fill="#C8D9B4"/>
<rect id="Rectangle 430" x="119.5" y="140.5" width="595.875" height="332.255" stroke="#D0C4B7" stroke-width="13"/>
<g id="line_map">
<rect id="Rectangle 432" x="158.41" y="176.55" width="519.199" height="263.63" stroke="white" stroke-width="4"/>
<rect id="Rectangle 433" x="653.049" y="276.187" width="24.5589" height="59.7215" stroke="white" stroke-width="4"/>
<rect id="Rectangle 434" x="158.41" y="277.346" width="24.5589" height="59.7215" stroke="white" stroke-width="4"/>
<path id="Vector 1" d="M419.151 176.288V439.284" stroke="#FFFDFD" stroke-width="4"/>
<path id="Ellipse 68" d="M418.009 268.077C438.959 268.077 455.991 285.31 455.991 306.627C455.991 327.944 438.96 345.177 418.009 345.177C397.058 345.177 380.026 327.944 380.026 306.627C380.027 285.31 397.058 268.077 418.009 268.077Z" stroke="white" stroke-width="4"/>
<path id="Vector 2" d="M680.179 211.045C563.659 211.045 559.09 405.685 680.179 405.685M680.179 211.045C563.659 211.045 559.09 405.685 680.179 405.685" stroke="#FFFDFD" stroke-width="4"/>
<path id="Vector 3" d="M156.41 406.264C272.93 406.264 277.499 211.624 156.41 211.624" stroke="#FFFDFD" stroke-width="4"/>
</g>
</g>
<g id="Group 47">
<path id="&#235;&#179;&#184;&#234;&#181;&#144;&#234;&#177;&#180;&#235;&#172;&#188;" d="M814.027 728.672L818.405 783.742L1060.68 774.196L1065.78 900.488L873.865 914.439L881.162 953.355L799.432 957.76L795.054 924.719L236.811 937.936L228.054 798.427L760.757 788.881L752.73 739.686C679.757 750.7 643.27 728.672 630.135 655.247L518.486 651.575L522.865 691.225L220.757 698.568L212 555.388L787.757 539.234L1116.14 374.761L1157 457.732L1110.3 483.431L1127.08 523.815L1003.76 581.087L985.513 548.045L918.378 581.087C947.567 647.904 896.486 720.596 814.027 728.672Z" fill="white" fill-opacity="0.76" stroke="#FFFDFD" stroke-width="2"/>
<g id="&#235;&#134;&#141;&#234;&#181;&#172;&#236;&#158;&#165;">
<rect id="Rectangle 435" width="227.73" height="129.86" transform="matrix(-0.919634 0.392777 -0.388692 -0.921367 1040.41 375.904)" fill="#E3DFC7"/>
<rect id="Rectangle 436" x="-1.30833" y="-0.528591" width="211.123" height="113.7" transform="matrix(-0.919634 0.392777 -0.388692 -0.921367 1028.46 371.458)" stroke="white" stroke-width="2"/>
<line id="Line 1" y1="-1" x2="115.7" y2="-1" transform="matrix(-0.388692 -0.921367 0.919634 -0.392777 933.18 413.814)" stroke="white" stroke-width="2"/>
<path id="Ellipse 69" d="M915.438 372.61C909.236 375.259 901.93 372.181 899.164 365.626C896.399 359.07 899.273 351.644 905.476 348.995C911.678 346.346 918.983 349.425 921.748 355.98C924.514 362.536 921.64 369.96 915.438 372.61Z" stroke="white" stroke-width="2"/>
<g id="Group 45">
<path id="Ellipse 71" d="M860.821 396.875C853.776 399.884 845.487 396.386 842.351 388.952C839.214 381.517 842.471 373.087 849.517 370.078C856.562 367.069 864.851 370.568 867.987 378.002C871.124 385.437 867.867 393.866 860.821 396.875Z" stroke="white" stroke-width="2"/>
<line id="Line 4" y1="-1" x2="48.0945" y2="-1" transform="matrix(0.805703 -0.593993 0.575762 0.816486 824.597 425.452)" stroke="white" stroke-width="2"/>
<line id="Line 5" y1="-1" x2="47.661" y2="-1" transform="matrix(0.976396 -0.21215 0.222233 0.975775 804.484 380.338)" stroke="white" stroke-width="2"/>
<path id="Vector 5" d="M834.342 449.832C909.294 417.768 861.794 318.694 792.555 354.697" stroke="#FFFDFD" stroke-width="2"/>
</g>
<g id="Group 46">
<path id="Ellipse 71_2" d="M960.272 323.522C967.317 320.513 975.606 324.011 978.742 331.446C981.879 338.88 978.622 347.31 971.576 350.319C964.531 353.328 956.242 349.83 953.106 342.395C949.969 334.961 953.226 326.531 960.272 323.522Z" stroke="white" stroke-width="2"/>
<line id="Line 4_2" y1="-1" x2="48.0945" y2="-1" transform="matrix(-0.805703 0.593993 -0.575762 -0.816486 996.496 294.946)" stroke="white" stroke-width="2"/>
<line id="Line 5_2" y1="-1" x2="47.661" y2="-1" transform="matrix(-0.976396 0.21215 -0.222233 -0.975775 1016.61 340.059)" stroke="white" stroke-width="2"/>
<path id="Vector 5_2" d="M986.751 270.566C911.798 302.63 959.299 401.703 1028.54 365.701" stroke="#FFFDFD" stroke-width="2"/>
</g>
</g>
<path id="Vector 6" d="M1168 647.828L1168 947.76C1168 978.136 1143.38 1002.76 1113 1002.76L684.228 1002.76L257.182 997.026C223.51 996.574 195.758 970.48 193.237 936.899L173.28 671.134C171.09 641.972 149.971 617.728 121.385 611.56L91.7229 605.161L21 596.761" stroke="white" stroke-width="38"/>
</g>
<g id="booth-19">
<path id="Rectangle 445" d="M202.613 157.673C202.613 152.151 207.09 147.673 212.613 147.673H241.262C246.785 147.673 251.262 152.151 251.262 157.673V189.667C251.262 195.19 246.785 199.667 241.262 199.667H212.613C207.09 199.667 202.613 195.19 202.613 189.667V157.673Z" fill="#FFE589"/>
<text id="19" fill="black" xml:space="preserve" style="white-space: pre" font-family="Roboto" font-size="16" font-weight="500" letter-spacing="0.15px"><tspan x="218.502" y="179.853">19</tspan></text>
</g>
<g id="booth-18">
<path id="Rectangle 444" d="M260.108 157.673C260.108 152.151 264.585 147.673 270.108 147.673H298.757C304.28 147.673 308.757 152.151 308.757 157.673V189.667C308.757 195.19 304.28 199.667 298.757 199.667H270.108C264.585 199.667 260.108 195.19 260.108 189.667V157.673Z" fill="#FFE589"/>
<text id="18" fill="black" xml:space="preserve" style="white-space: pre" font-family="Roboto" font-size="16" font-weight="500" letter-spacing="0.15px"><tspan x="275.807" y="179.853">18</tspan></text>
</g>
<g id="booth-17">
<path id="Rectangle 443" d="M317.602 157.673C317.602 152.151 322.079 147.673 327.602 147.673H356.251C361.774 147.673 366.251 152.151 366.251 157.673V189.667C366.251 195.19 361.774 199.667 356.251 199.667H327.602C322.079 199.667 317.602 195.19 317.602 189.667V157.673Z" fill="#FFE589"/>
<text id="17" fill="black" xml:space="preserve" style="white-space: pre" font-family="Roboto" font-size="16" font-weight="500" letter-spacing="0.15px"><tspan x="333.113" y="179.853">17</tspan></text>
</g>
<g id="booth-16">
<path id="Rectangle 441" d="M375.097 157.673C375.097 152.151 379.574 147.673 385.097 147.673H413.746C419.269 147.673 423.746 152.151 423.746 157.673V189.667C423.746 195.19 419.269 199.667 413.746 199.667H385.097C379.574 199.667 375.097 195.19 375.097 189.667V157.673Z" fill="#E098FF"/>
<text id="16" fill="black" xml:space="preserve" style="white-space: pre" font-family="Roboto" font-size="16" font-weight="500" letter-spacing="0.15px"><tspan x="391.39" y="179.853">16</tspan></text>
</g>
<g id="booth-15">
<path id="Rectangle 442" d="M432.591 157.673C432.591 152.151 437.068 147.673 442.591 147.673H471.24C476.763 147.673 481.24 152.151 481.24 157.673V189.667C481.24 195.19 476.763 199.667 471.24 199.667H442.591C437.068 199.667 432.591 195.19 432.591 189.667V157.673Z" fill="#E098FF"/>
<text id="15" fill="black" xml:space="preserve" style="white-space: pre" font-family="Roboto" font-size="16" font-weight="500" letter-spacing="0.15px"><tspan x="448.696" y="179.853">15</tspan></text>
</g>
<g id="booth-14">
<path id="Rectangle 448" d="M490.086 157.673C490.086 152.151 494.563 147.673 500.086 147.673H528.735C534.258 147.673 538.735 152.151 538.735 157.673V189.667C538.735 195.19 534.258 199.667 528.735 199.667H500.086C494.563 199.667 490.086 195.19 490.086 189.667V157.673Z" fill="#6DAAFF"/>
<text id="14" fill="black" xml:space="preserve" style="white-space: pre" font-family="Roboto" font-size="16" font-weight="500" letter-spacing="0.15px"><tspan x="506.002" y="179.853">14</tspan></text>
</g>
<g id="booth-13">
<path id="Rectangle 447" d="M547.58 157.673C547.58 152.151 552.057 147.673 557.58 147.673H586.229C591.752 147.673 596.229 152.151 596.229 157.673V189.667C596.229 195.19 591.752 199.667 586.229 199.667H557.58C552.057 199.667 547.58 195.19 547.58 189.667V157.673Z" fill="#6DAAFF"/>
<text id="13" fill="black" xml:space="preserve" style="white-space: pre" font-family="Roboto" font-size="16" font-weight="500" letter-spacing="0.15px"><tspan x="563.307" y="179.853">13</tspan></text>
</g>
<g id="booth-12">
<path id="Rectangle 446" d="M605.959 157.673C605.959 152.151 610.436 147.673 615.959 147.673H644.608C650.131 147.673 654.608 152.151 654.608 157.673V189.667C654.608 195.19 650.131 199.667 644.608 199.667H615.959C610.436 199.667 605.959 195.19 605.959 189.667V157.673Z" fill="#6DAAFF"/>
<text id="12" fill="black" xml:space="preserve" style="white-space: pre" font-family="Roboto" font-size="16" font-weight="500" letter-spacing="0.15px"><tspan x="621.584" y="179.853">12</tspan></text>
</g>
<g id="booth-11">
<path id="Rectangle 462" d="M654.496 215.339C654.496 209.817 658.974 205.339 664.496 205.339H699C704.523 205.339 709 209.817 709 215.339V231.263C709 236.785 704.523 241.263 699 241.263H664.496C658.974 241.263 654.496 236.785 654.496 231.263V215.339Z" fill="#6DAAFF"/>
<text id="11" fill="black" xml:space="preserve" style="white-space: pre" font-family="Roboto" font-size="16" font-weight="500" letter-spacing="0.15px"><tspan x="672.334" y="228.77">11</tspan></text>
</g>
<g id="booth-10">
<path id="Rectangle 461" d="M654.496 256.935C654.496 251.412 658.974 246.935 664.496 246.935H699C704.523 246.935 709 251.412 709 256.935V272.858C709 278.381 704.523 282.858 699 282.858H664.496C658.974 282.858 654.496 278.381 654.496 272.858V256.935Z" fill="#6DAAFF"/>
<text id="10" fill="black" xml:space="preserve" style="white-space: pre" font-family="Roboto" font-size="16" font-weight="500" letter-spacing="0.15px"><tspan x="672.334" y="270.365">10</tspan></text>
</g>
<g id="booth-9">
<path id="Rectangle 460" d="M654.496 298.53C654.496 293.007 658.974 288.53 664.496 288.53H699C704.523 288.53 709 293.007 709 298.53V314.453C709 319.976 704.523 324.453 699 324.453H664.496C658.974 324.453 654.496 319.976 654.496 314.453V298.53Z" fill="#6DAAFF"/>
<text id="9" fill="black" xml:space="preserve" style="white-space: pre" font-family="Roboto" font-size="16" font-weight="500" letter-spacing="0.15px"><tspan x="677.289" y="311.96">9</tspan></text>
</g>
<g id="booth-8">
<path id="Rectangle 459" d="M654.496 340.125C654.496 334.602 658.974 330.125 664.496 330.125H699C704.523 330.125 709 334.602 709 340.125V356.048C709 361.571 704.523 366.048 699 366.048H664.496C658.974 366.048 654.496 361.571 654.496 356.048V340.125Z" fill="#6DAAFF"/>
<text id="8" fill="black" xml:space="preserve" style="white-space: pre" font-family="Roboto" font-size="16" font-weight="500" letter-spacing="0.15px"><tspan x="677.289" y="353.555">8</tspan></text>
</g>
<g id="booth-6">
<path id="Rectangle 454" d="M605.959 423.315C605.959 417.792 610.436 413.315 615.959 413.315H644.608C650.131 413.315 654.608 417.792 654.608 423.315V455.309C654.608 460.832 650.131 465.309 644.608 465.309H615.959C610.436 465.309 605.959 460.832 605.959 455.309V423.315Z" fill="#6DAAFF"/>
<text id="6" fill="black" xml:space="preserve" style="white-space: pre" font-family="Roboto" font-size="16" font-weight="500" letter-spacing="0.15px"><tspan x="626.303" y="446.199">6</tspan></text>
</g>
<g id="booth-7">
<path id="Rectangle 458" d="M654.496 381.72C654.496 376.197 658.974 371.72 664.496 371.72H699C704.523 371.72 709 376.197 709 381.72V397.643C709 403.166 704.523 407.643 699 407.643H664.496C658.974 407.643 654.496 403.166 654.496 397.643V381.72Z" fill="#6DAAFF"/>
<text id="7" fill="black" xml:space="preserve" style="white-space: pre" font-family="Roboto" font-size="16" font-weight="500" letter-spacing="0.15px"><tspan x="677.289" y="395.15">7</tspan></text>
</g>
<g id="booth-5">
<path id="Rectangle 455" d="M547.58 424.261C547.58 418.738 552.057 414.261 557.58 414.261H586.229C591.752 414.261 596.229 418.738 596.229 424.261V456.255C596.229 461.777 591.752 466.255 586.229 466.255H557.58C552.057 466.255 547.58 461.777 547.58 456.255V424.261Z" fill="#6DAAFF"/>
<text id="5" fill="black" xml:space="preserve" style="white-space: pre" font-family="Roboto" font-size="16" font-weight="500" letter-spacing="0.15px"><tspan x="567.924" y="446.199">5</tspan></text>
</g>
<g id="booth-4">
<path id="Rectangle 456" d="M490.086 424.261C490.086 418.738 494.563 414.261 500.086 414.261H528.735C534.258 414.261 538.735 418.738 538.735 424.261V456.255C538.735 461.777 534.258 466.255 528.735 466.255H500.086C494.563 466.255 490.086 461.777 490.086 456.255V424.261Z" fill="#6DAAFF"/>
<text id="4" fill="black" xml:space="preserve" style="white-space: pre" font-family="Roboto" font-size="16" font-weight="500" letter-spacing="0.15px"><tspan x="510.43" y="446.199">4</tspan></text>
</g>
<g id="booth-22">
<path id="Rectangle 449" d="M432.591 424.261C432.591 418.738 437.068 414.261 442.591 414.261H471.24C476.763 414.261 481.24 418.738 481.24 424.261V456.255C481.24 461.777 476.763 466.255 471.24 466.255H442.591C437.068 466.255 432.591 461.777 432.591 456.255V424.261Z" fill="white" fill-opacity="0.75"/>
<text id="22*" fill="black" xml:space="preserve" style="white-space: pre" font-family="Roboto" font-size="16" font-weight="500" letter-spacing="0.15px"><tspan x="445.782" y="445.984">22*</tspan></text>
</g>
<g id="booth-21">
<path id="Rectangle 450" d="M375.097 424.261C375.097 418.738 379.574 414.261 385.097 414.261H413.746C419.269 414.261 423.746 418.738 423.746 424.261V456.255C423.746 461.777 419.269 466.255 413.746 466.255H385.097C379.574 466.255 375.097 461.777 375.097 456.255V424.261Z" fill="white" fill-opacity="0.75"/>
<text id="21*" fill="black" xml:space="preserve" style="white-space: pre" font-family="Roboto" font-size="16" font-weight="500" letter-spacing="0.15px"><tspan x="388.476" y="445.984">21*</tspan></text>
</g>
<g id="booth-3">
<path id="Rectangle 451" d="M317.602 424.261C317.602 418.738 322.079 414.261 327.602 414.261H356.251C361.774 414.261 366.251 418.738 366.251 424.261V456.255C366.251 461.777 361.774 466.255 356.251 466.255H327.602C322.079 466.255 317.602 461.777 317.602 456.255V424.261Z" fill="#6DAAFF"/>
<text id="3" fill="black" xml:space="preserve" style="white-space: pre" font-family="Roboto" font-size="16" font-weight="500" letter-spacing="0.15px"><tspan x="337.946" y="446.199">3</tspan></text>
</g>
<g id="booth-2">
<path id="Rectangle 452" d="M260.108 424.261C260.108 418.738 264.585 414.261 270.108 414.261H298.757C304.28 414.261 308.757 418.738 308.757 424.261V456.255C308.757 461.777 304.28 466.255 298.757 466.255H270.108C264.585 466.255 260.108 461.777 260.108 456.255V424.261Z" fill="#6DAAFF"/>
<text id="2" fill="black" xml:space="preserve" style="white-space: pre" font-family="Roboto" font-size="16" font-weight="500" letter-spacing="0.15px"><tspan x="280.452" y="446.199">2</tspan></text>
</g>
<g id="booth-1">
<path id="Rectangle 453" d="M202.613 424.261C202.613 418.738 207.09 414.261 212.613 414.261H241.262C246.785 414.261 251.262 418.738 251.262 424.261V456.255C251.262 461.777 246.785 466.255 241.262 466.255H212.613C207.09 466.255 202.613 461.777 202.613 456.255V424.261Z" fill="#6DAAFF"/>
<text id="1" fill="black" xml:space="preserve" style="white-space: pre" font-family="Roboto" font-size="16" font-weight="500" letter-spacing="0.15px"><tspan x="222.958" y="446.199">1</tspan></text>
</g>
<g id="booth-20">
<path id="Rectangle 457" d="M134 157.673C134 152.151 138.477 147.673 144 147.673H183.695C189.217 147.673 193.695 152.151 193.695 157.673V394.02C193.695 399.543 189.217 404.02 183.695 404.02H144C138.477 404.02 134 399.543 134 394.02V157.673Z" fill="white" fill-opacity="0.75"/>
<text id="20*" fill="black" xml:space="preserve" style="white-space: pre" font-family="Roboto" font-size="16" font-weight="500" letter-spacing="0.15px"><tspan x="151" y="281.469">20*</tspan></text>
</g>
<path id="Subtract" d="M320 592C328.284 592 335 598.716 335 607C335 615.284 328.284 622 320 622C311.716 622 305 615.284 305 607C305 598.716 311.716 592 320 592ZM321.073 598.181C320.772 597.97 320.384 597.943 320.061 598.102L319.927 598.181L312.427 603.431C312.159 603.618 312 603.924 312 604.25V612.5C312 613.199 312.31 613.845 312.819 614.304C313.326 614.759 313.992 615 314.667 615H326.333C327.008 615 327.674 614.759 328.181 614.304C328.69 613.845 329 613.199 329 612.5V604.25C329 603.924 328.841 603.618 328.573 603.431L321.073 598.181ZM327 604.771V612.5C327 612.597 326.958 612.713 326.843 612.817C326.724 612.924 326.542 613 326.333 613H324V606.5C324 605.948 323.552 605.5 323 605.5H318C317.448 605.5 317 605.948 317 606.5V613H314.667C314.458 613 314.276 612.924 314.157 612.817C314.042 612.714 314 612.597 314 612.5V604.771L320.5 600.22L327 604.771ZM322 607.5V613H319V607.5H322Z" fill="#AEC8E3"/>
<text id="&#236;&#154;&#180;&#236;&#160;&#149;&#234;&#179;&#160;&#235;&#147;&#177;&#237;&#149;&#153;&#234;&#181;&#144; &#235;&#179;&#184;&#234;&#181;&#144; &#234;&#177;&#180;&#235;&#172;&#188;" fill="#AEC8E3" xml:space="preserve" style="white-space: pre" font-family="Roboto" font-size="16" font-weight="500" letter-spacing="0.15px"><tspan x="341" y="612.469">&#xc6b4;&#xc815;&#xace0;&#xb4f1;&#xd559;&#xad50; &#xbcf8;&#xad50; &#xac74;&#xbb3c;</tspan></text>
<text id="&#236;&#154;&#180;&#235;&#143;&#153;&#236;&#158;&#165;_2" fill="#7E9464" xml:space="preserve" style="white-space: pre" font-family="Roboto" font-size="16" font-weight="500" letter-spacing="0.15px"><tspan x="396" y="313.469">&#xc6b4;&#xb3d9;&#xc7a5;</tspan></text>
<text id="&#235;&#134;&#141;&#234;&#181;&#172;&#236;&#158;&#165;_2" transform="translate(886.064 360.189) rotate(-24)" fill="#C1BB97" xml:space="preserve" style="white-space: pre" font-family="Roboto" font-size="16" font-weight="500" letter-spacing="0.15px"><tspan x="0" y="17.4688">&#xb18d;&#xad6c;&#xc7a5;</tspan></text>
<path id="Rectangle 463" d="M113 114C113 90.2518 132.252 71 156 71H679C702.748 71 722 90.2518 722 114V128H113V114Z" fill="#E49FA6"/>
<path id="Polygon 1" d="M758.676 156.104C758.058 138.409 776.826 126.681 792.459 134.994L890.335 187.035C905.968 195.347 906.741 217.466 891.726 226.848L797.718 285.59C782.703 294.973 763.162 284.582 762.544 266.888L758.676 156.104Z" fill="#E3DFC7"/>
<path id="Polygon 2" d="M769.714 172.668C769.123 155.742 787.076 144.524 802.029 152.475L869.318 188.254C884.271 196.204 885.011 217.361 870.649 226.335L806.018 266.721C791.656 275.695 772.965 265.756 772.374 248.831L769.714 172.668Z" stroke="white" stroke-width="2"/>
<text id="&#236;&#130;&#172;&#236;&#158;&#165;" fill="#C1BB97" xml:space="preserve" style="white-space: pre" font-family="Roboto" font-size="16" font-weight="500" letter-spacing="0.15px"><tspan x="801" y="217.469">&#xc0ac;&#xc7a5;</tspan></text>
<text id="&#234;&#179;&#132;&#236;&#163;&#188;&#237;&#138;&#184;&#235;&#158;&#153;" fill="white" xml:space="preserve" style="white-space: pre" font-family="Roboto" font-size="16" font-weight="500" letter-spacing="0.15px"><tspan x="387" y="105.469">&#xacc4;&#xc8fc;&#xd2b8;&#xb799;</tspan></text>
</g>
<defs>
<clipPath id="clip0_32_23">
<rect width="1130" height="722" fill="white"/>
</clipPath>
</defs>
</svg>
