<svg width="1351" height="1351" viewBox="0 0 1351 1351" fill="none" xmlns="http://www.w3.org/2000/svg">
<g id="map">
<rect width="1351" height="1351" fill="#CED9E5"/>
<g id="&#236;&#154;&#180;&#235;&#143;&#153;&#236;&#158;&#165;">
<rect id="Rectangle 431" x="580.012" y="794.807" width="582.601" height="318.607" fill="#C8D9B4"/>
<rect id="Rectangle 430" x="573.946" y="786.245" width="595.875" height="332.255" stroke="#D0C4B7" stroke-width="13"/>
<g id="line_map">
<rect id="Rectangle 432" x="612.855" y="822.296" width="519.199" height="263.63" stroke="white" stroke-width="4"/>
<rect id="Rectangle 433" x="1107.5" y="921.933" width="24.5589" height="59.7215" stroke="white" stroke-width="4"/>
<rect id="Rectangle 434" x="612.855" y="923.091" width="24.5589" height="59.7215" stroke="white" stroke-width="4"/>
<path id="Vector 1" d="M873.597 822.033V1085.03" stroke="#FFFDFD" stroke-width="4"/>
<path id="Ellipse 68" d="M872.455 913.823C893.405 913.823 910.437 931.055 910.437 952.372C910.437 973.69 893.405 990.922 872.455 990.922C851.504 990.922 834.472 973.69 834.472 952.372C834.472 931.055 851.504 913.823 872.455 913.823Z" stroke="white" stroke-width="4"/>
<path id="Vector 2" d="M1134.63 856.791C1018.1 856.791 1013.54 1051.43 1134.63 1051.43M1134.63 856.791C1018.1 856.791 1013.54 1051.43 1134.63 1051.43" stroke="#FFFDFD" stroke-width="4"/>
<path id="Vector 3" d="M610.855 1052.01C727.376 1052.01 731.945 857.37 610.855 857.37" stroke="#FFFDFD" stroke-width="4"/>
</g>
</g>
<path id="&#235;&#179;&#184;&#234;&#181;&#144;&#234;&#177;&#180;&#235;&#172;&#188;" d="M533.973 548.088L529.595 493.019L287.324 502.564L282.216 376.272L474.135 362.321L466.838 323.406L548.568 319L552.946 352.042L1111.19 338.825L1119.95 478.334L587.243 487.879L595.27 537.074C668.243 526.06 704.73 548.088 717.865 621.514L829.513 625.185L825.135 585.535L1127.24 578.193L1136 721.373L560.243 737.526L231.865 902L191 819.029L237.703 793.33L220.919 752.946L344.243 695.674L362.486 728.715L429.622 695.674C400.432 628.856 451.514 556.165 533.973 548.088Z" fill="white" fill-opacity="0.76" stroke="#FFFDFD" stroke-width="2"/>
<g id="&#235;&#134;&#141;&#234;&#181;&#172;&#236;&#158;&#165;">
<rect id="Rectangle 435" width="227.73" height="129.86" transform="matrix(0.919634 -0.392777 0.388692 0.921368 307.592 900.857)" fill="#E3DFC7"/>
<rect id="Rectangle 436" x="1.30833" y="0.528591" width="211.123" height="113.7" transform="matrix(0.919634 -0.392777 0.388692 0.921368 316.722 905.357)" stroke="white" stroke-width="2"/>
<line id="Line 1" y1="-1" x2="115.7" y2="-1" transform="matrix(0.388692 0.921368 -0.919634 0.392777 414.82 862.946)" stroke="white" stroke-width="2"/>
<path id="Ellipse 69" d="M432.562 904.151C438.764 901.502 446.07 904.579 448.835 911.135C451.601 917.69 448.727 925.116 442.524 927.766C436.322 930.414 429.017 927.336 426.251 920.78C423.486 914.225 426.36 906.8 432.562 904.151Z" stroke="white" stroke-width="2"/>
<g id="Group 45">
<path id="Ellipse 71" d="M487.179 879.885C494.224 876.876 502.513 880.375 505.649 887.809C508.786 895.243 505.529 903.673 498.483 906.682C491.438 909.691 483.149 906.193 480.013 898.758C476.876 891.324 480.133 882.894 487.179 879.885Z" stroke="white" stroke-width="2"/>
<line id="Line 4" y1="-1" x2="48.0945" y2="-1" transform="matrix(-0.805703 0.593993 -0.575762 -0.816486 523.403 851.309)" stroke="white" stroke-width="2"/>
<line id="Line 5" y1="-1" x2="47.661" y2="-1" transform="matrix(-0.976396 0.21215 -0.222233 -0.975775 543.516 896.423)" stroke="white" stroke-width="2"/>
<path id="Vector 5" d="M513.658 826.929C438.706 858.993 486.206 958.067 555.445 922.064" stroke="#FFFDFD" stroke-width="2"/>
</g>
<g id="Group 46">
<path id="Ellipse 71_2" d="M387.728 953.239C380.683 956.248 372.394 952.749 369.258 945.315C366.121 937.88 369.378 929.451 376.423 926.442C383.469 923.432 391.758 926.931 394.894 934.365C398.03 941.8 394.774 950.229 387.728 953.239Z" stroke="white" stroke-width="2"/>
<line id="Line 4_2" y1="-1" x2="48.0945" y2="-1" transform="matrix(0.805703 -0.593993 0.575762 0.816486 351.504 981.815)" stroke="white" stroke-width="2"/>
<line id="Line 5_2" y1="-1" x2="47.661" y2="-1" transform="matrix(0.976396 -0.21215 0.222233 0.975775 331.391 936.701)" stroke="white" stroke-width="2"/>
<path id="Vector 5_2" d="M361.249 1006.19C436.201 974.131 388.701 875.057 319.462 911.06" stroke="#FFFDFD" stroke-width="2"/>
</g>
</g>
<path id="Vector 6" d="M180 628.933V329C180 298.624 204.624 274 235 274H663.772L1090.82 279.734C1124.49 280.187 1152.24 306.281 1154.76 339.861L1174.72 605.627C1176.91 634.789 1198.03 659.032 1226.62 665.2L1256.28 671.6L1327 680" stroke="white" stroke-width="38"/>
<g id="booth-19">
<path id="Rectangle 445" d="M656.613 803.419C656.613 797.896 661.09 793.419 666.613 793.419H695.262C700.785 793.419 705.262 797.896 705.262 803.419V835.413C705.262 840.936 700.785 845.413 695.262 845.413H666.613C661.09 845.413 656.613 840.936 656.613 835.413V803.419Z" fill="#FFE589"/>
<text id="19" fill="black" xml:space="preserve" style="white-space: pre" font-family="Roboto" font-size="16" font-weight="500" letter-spacing="0.15px"><tspan x="672.502" y="825.598">19</tspan></text>
</g>
<g id="booth-18">
<path id="Rectangle 444" d="M714.108 803.419C714.108 797.896 718.585 793.419 724.108 793.419H752.757C758.28 793.419 762.757 797.896 762.757 803.419V835.413C762.757 840.936 758.28 845.413 752.757 845.413H724.108C718.585 845.413 714.108 840.936 714.108 835.413V803.419Z" fill="#FFE589"/>
<text id="18" fill="black" xml:space="preserve" style="white-space: pre" font-family="Roboto" font-size="16" font-weight="500" letter-spacing="0.15px"><tspan x="729.807" y="825.598">18</tspan></text>
</g>
<g id="booth-17">
<path id="Rectangle 443" d="M771.602 803.419C771.602 797.896 776.079 793.419 781.602 793.419H810.251C815.774 793.419 820.251 797.896 820.251 803.419V835.413C820.251 840.936 815.774 845.413 810.251 845.413H781.602C776.079 845.413 771.602 840.936 771.602 835.413V803.419Z" fill="#FFE589"/>
<text id="17" fill="black" xml:space="preserve" style="white-space: pre" font-family="Roboto" font-size="16" font-weight="500" letter-spacing="0.15px"><tspan x="787.113" y="825.598">17</tspan></text>
</g>
<g id="booth-16">
<path id="Rectangle 441" d="M829.097 803.419C829.097 797.896 833.574 793.419 839.097 793.419H867.746C873.269 793.419 877.746 797.896 877.746 803.419V835.413C877.746 840.936 873.269 845.413 867.746 845.413H839.097C833.574 845.413 829.097 840.936 829.097 835.413V803.419Z" fill="#E098FF"/>
<text id="16" fill="black" xml:space="preserve" style="white-space: pre" font-family="Roboto" font-size="16" font-weight="500" letter-spacing="0.15px"><tspan x="845.39" y="825.598">16</tspan></text>
</g>
<g id="booth-15">
<path id="Rectangle 442" d="M886.591 803.419C886.591 797.896 891.068 793.419 896.591 793.419H925.24C930.763 793.419 935.24 797.896 935.24 803.419V835.413C935.24 840.936 930.763 845.413 925.24 845.413H896.591C891.068 845.413 886.591 840.936 886.591 835.413V803.419Z" fill="#E098FF"/>
<text id="15" fill="black" xml:space="preserve" style="white-space: pre" font-family="Roboto" font-size="16" font-weight="500" letter-spacing="0.15px"><tspan x="902.696" y="825.598">15</tspan></text>
</g>
<g id="booth-14">
<path id="Rectangle 448" d="M944.086 803.419C944.086 797.896 948.563 793.419 954.086 793.419H982.735C988.258 793.419 992.735 797.896 992.735 803.419V835.413C992.735 840.936 988.258 845.413 982.735 845.413H954.086C948.563 845.413 944.086 840.936 944.086 835.413V803.419Z" fill="#6DAAFF"/>
<text id="14" fill="black" xml:space="preserve" style="white-space: pre" font-family="Roboto" font-size="16" font-weight="500" letter-spacing="0.15px"><tspan x="960.002" y="825.598">14</tspan></text>
</g>
<g id="booth-13">
<path id="Rectangle 447" d="M1001.58 803.419C1001.58 797.896 1006.06 793.419 1011.58 793.419H1040.23C1045.75 793.419 1050.23 797.896 1050.23 803.419V835.413C1050.23 840.936 1045.75 845.413 1040.23 845.413H1011.58C1006.06 845.413 1001.58 840.936 1001.58 835.413V803.419Z" fill="#6DAAFF"/>
<text id="13" fill="black" xml:space="preserve" style="white-space: pre" font-family="Roboto" font-size="16" font-weight="500" letter-spacing="0.15px"><tspan x="1017.31" y="825.598">13</tspan></text>
</g>
<g id="booth-12">
<path id="Rectangle 446" d="M1059.96 803.419C1059.96 797.896 1064.44 793.419 1069.96 793.419H1098.61C1104.13 793.419 1108.61 797.896 1108.61 803.419V835.413C1108.61 840.936 1104.13 845.413 1098.61 845.413H1069.96C1064.44 845.413 1059.96 840.936 1059.96 835.413V803.419Z" fill="#6DAAFF"/>
<text id="12" fill="black" xml:space="preserve" style="white-space: pre" font-family="Roboto" font-size="16" font-weight="500" letter-spacing="0.15px"><tspan x="1075.58" y="825.598">12</tspan></text>
</g>
<g id="booth-11">
<path id="Rectangle 462" d="M1108.5 861.085C1108.5 855.562 1112.97 851.085 1118.5 851.085H1153C1158.52 851.085 1163 855.562 1163 861.085V877.008C1163 882.531 1158.52 887.008 1153 887.008H1118.5C1112.97 887.008 1108.5 882.531 1108.5 877.008V861.085Z" fill="#6DAAFF"/>
<text id="11" fill="black" xml:space="preserve" style="white-space: pre" font-family="Roboto" font-size="16" font-weight="500" letter-spacing="0.15px"><tspan x="1126.33" y="874.515">11</tspan></text>
</g>
<g id="booth-10">
<path id="Rectangle 461" d="M1108.5 902.68C1108.5 897.157 1112.97 892.68 1118.5 892.68H1153C1158.52 892.68 1163 897.157 1163 902.68V918.603C1163 924.126 1158.52 928.603 1153 928.603H1118.5C1112.97 928.603 1108.5 924.126 1108.5 918.603V902.68Z" fill="#6DAAFF"/>
<text id="10" fill="black" xml:space="preserve" style="white-space: pre" font-family="Roboto" font-size="16" font-weight="500" letter-spacing="0.15px"><tspan x="1126.33" y="916.11">10</tspan></text>
</g>
<g id="booth-9">
<path id="Rectangle 460" d="M1108.5 944.275C1108.5 938.752 1112.97 934.275 1118.5 934.275H1153C1158.52 934.275 1163 938.752 1163 944.275V960.198C1163 965.721 1158.52 970.198 1153 970.198H1118.5C1112.97 970.198 1108.5 965.721 1108.5 960.198V944.275Z" fill="#6DAAFF"/>
<text id="9" fill="black" xml:space="preserve" style="white-space: pre" font-family="Roboto" font-size="16" font-weight="500" letter-spacing="0.15px"><tspan x="1131.29" y="957.706">9</tspan></text>
</g>
<g id="booth-8">
<path id="Rectangle 459" d="M1108.5 985.87C1108.5 980.348 1112.97 975.87 1118.5 975.87H1153C1158.52 975.87 1163 980.348 1163 985.87V1001.79C1163 1007.32 1158.52 1011.79 1153 1011.79H1118.5C1112.97 1011.79 1108.5 1007.32 1108.5 1001.79V985.87Z" fill="#6DAAFF"/>
<text id="8" fill="black" xml:space="preserve" style="white-space: pre" font-family="Roboto" font-size="16" font-weight="500" letter-spacing="0.15px"><tspan x="1131.29" y="999.301">8</tspan></text>
</g>
<g id="booth-6">
<path id="Rectangle 454" d="M1059.96 1069.06C1059.96 1063.54 1064.44 1059.06 1069.96 1059.06H1098.61C1104.13 1059.06 1108.61 1063.54 1108.61 1069.06V1101.05C1108.61 1106.58 1104.13 1111.05 1098.61 1111.05H1069.96C1064.44 1111.05 1059.96 1106.58 1059.96 1101.05V1069.06Z" fill="#6DAAFF"/>
<text id="6" fill="black" xml:space="preserve" style="white-space: pre" font-family="Roboto" font-size="16" font-weight="500" letter-spacing="0.15px"><tspan x="1080.3" y="1091.94">6</tspan></text>
</g>
<g id="booth-7">
<path id="Rectangle 458" d="M1108.5 1027.47C1108.5 1021.94 1112.97 1017.47 1118.5 1017.47H1153C1158.52 1017.47 1163 1021.94 1163 1027.47V1043.39C1163 1048.91 1158.52 1053.39 1153 1053.39H1118.5C1112.97 1053.39 1108.5 1048.91 1108.5 1043.39V1027.47Z" fill="#6DAAFF"/>
<text id="7" fill="black" xml:space="preserve" style="white-space: pre" font-family="Roboto" font-size="16" font-weight="500" letter-spacing="0.15px"><tspan x="1131.29" y="1040.9">7</tspan></text>
</g>
<g id="booth-5">
<path id="Rectangle 455" d="M1001.58 1070.01C1001.58 1064.48 1006.06 1060.01 1011.58 1060.01H1040.23C1045.75 1060.01 1050.23 1064.48 1050.23 1070.01V1102C1050.23 1107.52 1045.75 1112 1040.23 1112H1011.58C1006.06 1112 1001.58 1107.52 1001.58 1102V1070.01Z" fill="#6DAAFF"/>
<text id="5" fill="black" xml:space="preserve" style="white-space: pre" font-family="Roboto" font-size="16" font-weight="500" letter-spacing="0.15px"><tspan x="1021.92" y="1091.94">5</tspan></text>
</g>
<g id="booth-4">
<path id="Rectangle 456" d="M944.086 1070.01C944.086 1064.48 948.563 1060.01 954.086 1060.01H982.735C988.258 1060.01 992.735 1064.48 992.735 1070.01V1102C992.735 1107.52 988.258 1112 982.735 1112H954.086C948.563 1112 944.086 1107.52 944.086 1102V1070.01Z" fill="#6DAAFF"/>
<text id="4" fill="black" xml:space="preserve" style="white-space: pre" font-family="Roboto" font-size="16" font-weight="500" letter-spacing="0.15px"><tspan x="964.43" y="1091.94">4</tspan></text>
</g>
<g id="booth-22">
<path id="Rectangle 449" d="M886.591 1070.01C886.591 1064.48 891.068 1060.01 896.591 1060.01H925.24C930.763 1060.01 935.24 1064.48 935.24 1070.01V1102C935.24 1107.52 930.763 1112 925.24 1112H896.591C891.068 1112 886.591 1107.52 886.591 1102V1070.01Z" fill="white" fill-opacity="0.75"/>
<text id="22*" fill="black" xml:space="preserve" style="white-space: pre" font-family="Roboto" font-size="16" font-weight="500" letter-spacing="0.15px"><tspan x="899.782" y="1091.73">22*</tspan></text>
</g>
<g id="booth-21">
<path id="Rectangle 450" d="M829.097 1070.01C829.097 1064.48 833.574 1060.01 839.097 1060.01H867.746C873.269 1060.01 877.746 1064.48 877.746 1070.01V1102C877.746 1107.52 873.269 1112 867.746 1112H839.097C833.574 1112 829.097 1107.52 829.097 1102V1070.01Z" fill="white" fill-opacity="0.75"/>
<text id="21*" fill="black" xml:space="preserve" style="white-space: pre" font-family="Roboto" font-size="16" font-weight="500" letter-spacing="0.15px"><tspan x="842.476" y="1091.73">21*</tspan></text>
</g>
<g id="booth-3">
<path id="Rectangle 451" d="M771.602 1070.01C771.602 1064.48 776.079 1060.01 781.602 1060.01H810.251C815.774 1060.01 820.251 1064.48 820.251 1070.01V1102C820.251 1107.52 815.774 1112 810.251 1112H781.602C776.079 1112 771.602 1107.52 771.602 1102V1070.01Z" fill="#6DAAFF"/>
<text id="3" fill="black" xml:space="preserve" style="white-space: pre" font-family="Roboto" font-size="16" font-weight="500" letter-spacing="0.15px"><tspan x="791.946" y="1091.94">3</tspan></text>
</g>
<g id="booth-2">
<path id="Rectangle 452" d="M714.108 1070.01C714.108 1064.48 718.585 1060.01 724.108 1060.01H752.757C758.28 1060.01 762.757 1064.48 762.757 1070.01V1102C762.757 1107.52 758.28 1112 752.757 1112H724.108C718.585 1112 714.108 1107.52 714.108 1102V1070.01Z" fill="#6DAAFF"/>
<text id="2" fill="black" xml:space="preserve" style="white-space: pre" font-family="Roboto" font-size="16" font-weight="500" letter-spacing="0.15px"><tspan x="734.452" y="1091.94">2</tspan></text>
</g>
<g id="booth-1">
<path id="Rectangle 453" d="M656.613 1070.01C656.613 1064.48 661.09 1060.01 666.613 1060.01H695.262C700.785 1060.01 705.262 1064.48 705.262 1070.01V1102C705.262 1107.52 700.785 1112 695.262 1112H666.613C661.09 1112 656.613 1107.52 656.613 1102V1070.01Z" fill="#6DAAFF"/>
<text id="1" fill="black" xml:space="preserve" style="white-space: pre" font-family="Roboto" font-size="16" font-weight="500" letter-spacing="0.15px"><tspan x="676.958" y="1091.94">1</tspan></text>
</g>
<g id="booth-20">
<path id="Rectangle 457" d="M588 803.419C588 797.896 592.477 793.419 598 793.419H637.695C643.217 793.419 647.695 797.896 647.695 803.419V1102C647.695 1107.52 643.217 1112 637.695 1112H598C592.477 1112 588 1107.52 588 1102V803.419Z" fill="white" fill-opacity="0.75"/>
<text id="20*" fill="black" xml:space="preserve" style="white-space: pre" font-family="Roboto" font-size="16" font-weight="500" letter-spacing="0.15px"><tspan x="607.069" y="946.651">20</tspan><tspan x="607.069" y="970.651">*</tspan></text>
</g>
</g>
</svg>
